<svg width="189" height="52" viewBox="0 0 189 52" fill="none" xmlns="http://www.w3.org/2000/svg">
<path d="M122.557 11.066C124.283 12.3713 125.51 13.6101 126.24 14.7826C126.993 15.9329 127.369 17.1828 127.369 18.5323C127.369 20.0809 126.993 21.5631 126.24 22.9789C125.488 24.3947 124.371 25.4566 122.889 26.1645C122.026 26.5627 121.141 26.8282 120.234 26.9609C119.349 27.0936 118.354 27.16 117.248 27.16C117.137 27.16 117.027 26.9056 116.916 26.3968C116.805 25.8658 116.75 25.1247 116.75 24.1735C116.75 22.6692 116.883 21.6294 117.148 21.0542C117.392 20.4791 117.646 20.1915 117.911 20.1915C119.283 20.1915 120.367 20.0809 121.163 19.8596C121.982 19.6384 122.391 19.3619 122.391 19.0301C122.391 18.6097 121.971 17.9461 121.13 17.0391C120.29 16.132 118.829 14.9706 116.75 13.5548L117.911 7.58179L134.005 0.613281L135.001 5.92262L122.557 11.066Z" fill="#A72F3B"/>
<path d="M117.241 27.16C114.808 27.16 112.894 26.5074 111.5 25.2022C110.107 23.8748 109.365 21.8175 109.277 19.0301L108.613 1.11103L114.254 0.613281C114.232 2.73702 114.199 5.54654 114.155 9.04186C114.133 12.5151 114.111 14.6277 114.089 15.3799C114.089 17.0833 114.376 18.3111 114.951 19.0632C115.549 19.8154 116.533 20.1915 117.905 20.1915L117.241 27.16Z" fill="black"/>
<path d="M104.781 11.2305C105.223 14.3276 105.444 16.8716 105.444 18.8626C105.444 21.4288 104.902 23.453 103.818 24.9352C102.757 26.4174 101.307 27.1585 99.4713 27.1585C98.0334 27.1585 96.8277 26.9373 95.8544 26.4948C94.881 26.0303 94.2062 25.444 93.8302 24.7361C93.432 25.4883 92.8125 26.0856 91.9719 26.528C91.1313 26.9483 90.2021 27.1585 89.1845 27.1585C87.9899 27.1585 86.9944 26.9373 86.198 26.4948C85.4016 26.0303 84.8817 25.3998 84.6384 24.6034C84.1074 25.5104 83.3221 26.163 82.2824 26.5612C81.2647 26.9594 79.86 27.1585 78.0681 27.1585C77.9575 27.1585 77.8468 26.9041 77.7362 26.3953C77.6256 25.8643 77.5703 25.1232 77.5703 24.172C77.5703 22.6677 77.703 21.6279 77.9685 21.0528C78.2119 20.4776 78.4663 20.19 78.7317 20.19C80.1918 20.19 81.2758 19.9909 81.9837 19.5927C82.6916 19.1945 83.0456 18.5087 83.0456 17.5353V15.2125L87.3594 14.8806V17.2035C87.3594 19.1945 88.1337 20.19 89.6822 20.19C90.4344 20.19 91.0096 19.9577 91.4078 19.4931C91.806 19.0286 92.0051 18.376 92.0051 17.5353V15.5443L96.3189 15.2125V17.2035C96.3189 18.199 96.5955 18.9511 97.1485 19.4599C97.7237 19.9466 98.5533 20.19 99.6373 20.19C100.19 20.19 100.467 19.9688 100.467 19.5263C100.467 18.9954 100.378 18.1326 100.201 16.938C100.024 15.7213 99.7811 14.3165 99.4713 12.7237L104.781 11.2305Z" fill="black"/>
<path d="M78.0657 27.1578C76.5614 27.1578 75.2894 26.9034 74.2496 26.3946C73.232 25.8636 72.5573 25.1447 72.2255 24.2376C71.7166 25.1447 70.8428 25.8636 69.604 26.3946C68.3651 26.9034 66.8166 27.1578 64.9583 27.1578H64.2946C64.184 27.1578 64.0734 26.9034 63.9628 26.3946C63.8522 25.8636 63.7969 25.1225 63.7969 24.1713C63.7969 22.667 63.9296 21.6272 64.1951 21.052C64.4384 20.4769 64.6928 20.1893 64.9583 20.1893H65.622C67.5687 20.1893 68.9071 19.8796 69.6372 19.2601C70.3893 18.6407 70.7654 17.7337 70.7654 16.5391V14.2163L75.0792 13.8844V16.3732C75.0792 17.7448 75.3668 18.7292 75.942 19.3265C76.5393 19.9017 77.4684 20.1893 78.7294 20.1893L78.0657 27.1578ZM70.4336 6.75H70.7654H76.2406V11.2298H70.7654H70.4336H64.9583V6.75H70.4336Z" fill="black"/>
<path d="M62.8752 27.1622C62.2116 29.8832 60.6409 31.9295 58.1632 33.3011C56.6589 34.1197 54.8117 34.7833 52.6216 35.2921C50.4315 35.8231 47.7989 36.2102 44.7239 36.4536C44.4363 35.0156 44.0492 32.9693 43.5625 30.3146C48.8276 29.9607 52.6437 29.4629 55.0108 28.8214C57.4 28.1798 58.7162 27.4055 58.9596 26.4985C57.3225 26.7198 55.6191 26.8304 53.8494 26.8304C52.1238 26.8304 50.8075 26.3658 49.9005 25.4367C48.9935 24.5075 48.54 23.2023 48.54 21.521C48.54 19.7291 48.8497 18.0257 49.4691 16.4108C50.1107 14.7737 50.9845 13.4464 52.0906 12.4288C53.1967 11.4112 54.4467 10.9023 55.8404 10.9023C57.7429 10.9023 59.3467 11.7098 60.6519 13.3247C61.9572 14.9175 62.7867 17.2072 63.1407 20.1937H64.9658L64.3021 27.1622H62.8752ZM52.6879 19.0323C52.6879 19.4747 52.8428 19.8066 53.1525 20.0278C53.4843 20.249 54.0485 20.3596 54.8449 20.3596L58.4287 20.2932C57.8314 17.904 56.6921 16.7094 55.0108 16.7094C54.3913 16.7094 53.8494 16.9638 53.3848 17.4727C52.9202 17.9815 52.6879 18.5013 52.6879 19.0323Z" fill="black"/>
<path d="M39.7402 10.4023C40.979 10.4023 41.9745 10.7452 42.7267 11.431C43.4788 12.0947 44.0319 13.1344 44.3858 14.5503C44.5628 15.2361 44.7177 16.0878 44.8504 17.1054C44.9831 18.1009 45.0495 18.9637 45.0495 19.6937C45.0495 21.0431 44.7951 22.3152 44.2863 23.5098C43.7775 24.7044 43.1027 25.6667 42.2621 26.3967C41.4436 27.1268 40.6029 27.4918 39.7402 27.4918C38.3022 27.4918 36.8643 27.16 35.4263 26.4963C33.9884 25.8326 32.9929 25.0915 32.4398 24.273C31.6434 25.3349 30.7917 26.087 29.8847 26.5295C28.9777 26.9498 28.0043 27.16 26.9645 27.16C26.8539 27.16 26.7433 26.9055 26.6327 26.3967C26.5221 25.8658 26.4668 25.1247 26.4668 24.1734C26.4668 22.6691 26.5995 21.6294 26.865 21.0542C27.1083 20.479 27.3627 20.1914 27.6282 20.1914C28.314 20.1914 28.8671 20.114 29.2874 19.9592C29.7298 19.7822 30.128 19.4835 30.482 19.0632C30.8581 18.6208 31.2895 17.946 31.7761 17.039C32.7495 15.2692 33.6123 13.9198 34.3644 12.9906C35.1166 12.0394 35.9019 11.3757 36.7205 10.9996C37.5611 10.6014 38.5677 10.4023 39.7402 10.4023ZM35.3268 18.6318C35.5701 19.0521 36.2338 19.4725 37.3178 19.8928C38.4018 20.3131 39.3751 20.5233 40.2379 20.5233C40.5476 20.5233 40.7025 20.3574 40.7025 20.0255C40.7025 19.6494 40.6472 19.1849 40.5366 18.6318C40.4481 18.0566 40.3485 17.581 40.2379 17.2049C39.9946 16.4307 39.5521 16.0435 38.9106 16.0435C38.3354 16.0435 37.8598 16.1099 37.4837 16.2426C37.1076 16.3754 36.7536 16.6298 36.4218 17.0058C36.1121 17.3598 35.7471 17.9018 35.3268 18.6318Z" fill="black"/>
<path d="M25.6411 27.1604C25.6411 28.3107 25.3645 29.4058 24.8115 30.4455C24.2805 31.4853 23.5063 32.4365 22.4886 33.2993C21.3162 34.3169 19.6238 35.1465 17.4116 35.7881C15.1993 36.4517 12.9097 36.7836 10.5426 36.7836C7.04729 36.7836 4.42581 36.0646 2.67815 34.6267C0.952612 33.2108 0.0898438 31.0539 0.0898438 28.1559C0.0898438 25.5012 0.753512 22.017 2.08085 17.7031L6.22877 18.8645C5.80845 20.4573 5.5098 21.7515 5.33282 22.747C5.15584 23.7204 5.06735 24.5831 5.06735 25.3353C5.06735 26.7954 5.58722 27.9015 6.62697 28.6536C7.68884 29.4279 9.38119 29.8151 11.704 29.8151C13.4074 29.8151 14.956 29.6823 16.3497 29.4169C17.7434 29.1735 18.8385 28.8638 19.6349 28.4877C20.4313 28.1116 20.8295 27.7798 20.8295 27.4922C20.8295 27.3152 20.6193 27.1604 20.199 27.0277C19.7787 26.8728 19.0044 26.7069 17.8761 26.5299C16.7479 26.3529 15.0777 26.1206 12.8654 25.8331L14.0269 20.026C16.4603 20.1366 20.2764 20.1919 25.4751 20.1919H27.6321L26.9684 27.1604H25.6411Z" fill="black"/>
<path d="M123.394 35.8935C124.135 35.8935 124.704 36.2767 125.1 37.0431C125.504 37.8094 125.706 38.8242 125.706 40.0874C125.706 40.6348 125.592 41.1485 125.365 41.6286C125.138 42.1002 124.818 42.4244 124.405 42.6012C124.093 42.736 123.66 42.8328 123.104 42.8918C122.556 42.9507 121.959 42.9802 121.31 42.9802H120.388C120.354 42.9802 120.321 42.9297 120.287 42.8286C120.253 42.7276 120.236 42.5886 120.236 42.4117C120.236 42.1254 120.27 41.9065 120.337 41.7549C120.396 41.5949 120.464 41.5149 120.539 41.5149H121.613C123.028 41.5149 123.971 41.4138 124.443 41.2117C124.611 41.1359 124.695 40.9464 124.695 40.6432C124.695 40.4159 124.691 40.2516 124.683 40.1506C124.077 40.3022 123.487 40.378 122.914 40.378C122.359 40.378 121.937 40.2474 121.651 39.9864C121.373 39.7169 121.234 39.3548 121.234 38.9C121.234 38.3947 121.327 37.9105 121.512 37.4473C121.697 36.9841 121.954 36.6094 122.283 36.323C122.611 36.0367 122.982 35.8935 123.394 35.8935ZM122.232 38.3947C122.232 38.6052 122.308 38.7737 122.46 38.9C122.62 39.0179 122.843 39.0768 123.129 39.0768C123.626 39.0768 124.102 39.0347 124.557 38.9505C124.447 38.361 124.274 37.9147 124.039 37.6115C123.803 37.3083 123.521 37.1568 123.192 37.1568C122.923 37.1568 122.695 37.2789 122.51 37.5231C122.325 37.7673 122.232 38.0578 122.232 38.3947ZM122.523 34.5798V33.1523H124.064V34.5798H122.523Z" fill="black"/>
<path d="M120.387 42.9825C119.798 42.9825 119.377 42.8815 119.124 42.6794C119.099 43.3362 118.96 43.8963 118.707 44.3595C118.463 44.8311 118.05 45.2395 117.469 45.5848C116.897 45.9385 116.109 46.2332 115.107 46.469L114.627 45.1805C115.536 44.9447 116.235 44.7047 116.724 44.4605C117.221 44.2163 117.558 43.9721 117.734 43.7278C117.92 43.4836 118.012 43.2141 118.012 42.9194C118.012 42.4141 117.962 41.8414 117.861 41.2014C117.768 40.553 117.642 39.9213 117.482 39.3066L118.707 38.9023C118.833 39.6855 118.956 40.254 119.073 40.6077C119.2 40.953 119.368 41.193 119.579 41.3277C119.789 41.454 120.109 41.5172 120.539 41.5172L120.387 42.9825Z" fill="black"/>
<path d="M112.608 38.207C113.113 38.207 113.543 38.3923 113.896 38.7628C114.259 39.1334 114.528 39.6134 114.705 40.2029C114.89 40.784 114.983 41.3988 114.983 42.0472C114.983 42.8388 114.852 43.4873 114.591 43.9926C114.33 44.4979 113.901 44.9232 113.303 45.2684C112.317 45.8411 110.726 46.2243 108.528 46.418C108.444 46.0895 108.343 45.6263 108.225 45.0284C109.698 44.8937 110.852 44.7295 111.686 44.5358C112.52 44.3421 113.105 44.1063 113.442 43.8284C113.787 43.5589 113.96 43.2304 113.96 42.8431V42.742C113.421 42.9104 112.797 42.9946 112.09 42.9946C111.534 42.9946 111.113 42.8599 110.827 42.5904C110.541 42.3125 110.397 41.9335 110.397 41.4535C110.397 40.8893 110.49 40.3587 110.675 39.8619C110.869 39.365 111.134 38.965 111.471 38.6618C111.808 38.3586 112.187 38.207 112.608 38.207ZM111.408 40.8851C111.408 41.0956 111.484 41.264 111.635 41.3903C111.795 41.5167 112.027 41.5798 112.33 41.5798C112.827 41.5798 113.332 41.5335 113.846 41.4409C113.728 40.8514 113.547 40.3924 113.303 40.064C113.067 39.7355 112.781 39.5713 112.444 39.5713C112.149 39.5713 111.901 39.7061 111.698 39.9755C111.505 40.2366 111.408 40.5398 111.408 40.8851Z" fill="black"/>
<path d="M108.315 38.2445C108.382 38.6403 108.441 39.1077 108.492 39.6466C108.542 40.1772 108.567 40.6319 108.567 41.0109C108.567 41.6088 108.42 42.0889 108.125 42.451C107.839 42.8047 107.481 42.9815 107.052 42.9815C106.58 42.9815 106.167 42.8973 105.814 42.7289C105.468 42.5605 105.224 42.3289 105.081 42.0341C104.896 42.3373 104.656 42.5731 104.361 42.7415C104.066 42.9015 103.738 42.9815 103.376 42.9815C102.971 42.9815 102.618 42.9015 102.314 42.7415C102.011 42.5731 101.809 42.3331 101.708 42.0215C101.506 42.3415 101.199 42.5815 100.786 42.7415C100.373 42.9015 99.8259 42.9815 99.1438 42.9815C99.1101 42.9815 99.0764 42.931 99.0427 42.8299C99.009 42.7289 98.9922 42.5899 98.9922 42.4131C98.9922 42.1268 99.0259 41.9078 99.0932 41.7562C99.1522 41.5962 99.2196 41.5162 99.2954 41.5162C100.003 41.5162 100.525 41.4109 100.862 41.2004C101.199 40.9814 101.367 40.6362 101.367 40.1646V39.4319L102.441 39.3435V40.2782C102.441 40.6656 102.529 40.9688 102.706 41.1878C102.891 41.4067 103.161 41.5162 103.515 41.5162C103.835 41.5162 104.1 41.4025 104.31 41.1751C104.529 40.9477 104.639 40.6741 104.639 40.354V39.5582L105.713 39.4698V40.2782C105.713 40.6572 105.835 40.9604 106.079 41.1878C106.331 41.4067 106.677 41.5162 107.115 41.5162C107.207 41.5162 107.283 41.4909 107.342 41.4404C107.401 41.3815 107.431 41.3057 107.431 41.213C107.431 40.9856 107.393 40.6151 107.317 40.1014C107.249 39.5793 107.169 39.0782 107.077 38.5982L108.315 38.2445ZM104.146 35.8064V34.5938H105.561V35.8064H104.146ZM104.79 36.3875H104.917H106.572V37.575H104.917H104.79H103.136V36.3875H104.79Z" fill="black"/>
<path d="M92.8673 34.6578L92.741 33.8115L96.6443 32.043L96.8338 32.8388L92.8673 34.6578ZM99.1455 42.9825C98.6823 42.9825 98.2612 42.9193 97.8823 42.793C97.5117 42.6667 97.1159 42.4435 96.6948 42.1235C96.2738 41.8035 95.76 41.3361 95.1537 40.7213C95.1032 41.1087 94.9811 41.4582 94.7874 41.7698C94.5937 42.0729 94.3621 42.3045 94.0926 42.4645C93.8147 42.6245 93.4652 42.7509 93.0441 42.8435C92.623 42.9361 92.1936 42.9825 91.7556 42.9825C91.7219 42.9825 91.6883 42.9361 91.6546 42.8435C91.6209 42.7424 91.6041 42.5951 91.6041 42.4014C91.6041 42.1235 91.6377 41.9087 91.7051 41.7571C91.7641 41.5971 91.8314 41.5171 91.9072 41.5171C92.5641 41.5171 93.0989 41.4413 93.5115 41.2897C93.9242 41.1382 94.1305 40.9403 94.1305 40.696C94.1305 40.5023 94.0757 40.3002 93.9663 40.0897C93.8568 39.8791 93.6126 39.5886 93.2336 39.2181C92.8546 38.8391 92.282 38.3507 91.5156 37.7527L91.8188 36.1484L98.2739 33.1546L98.5518 34.3294L92.6399 37.0453C93.5073 37.6938 94.3916 38.418 95.2927 39.2181C96.0001 39.8497 96.5685 40.3255 96.998 40.6455C97.4275 40.9655 97.8149 41.1929 98.1602 41.3276C98.5054 41.454 98.8844 41.5171 99.2971 41.5171L99.1455 42.9825Z" fill="black"/>
<path d="M91.7452 42.9802C90.9115 42.9802 90.2841 42.7655 89.863 42.336C89.4504 41.898 89.2314 41.2243 89.2061 40.3148L89.0293 33.2534L90.3304 33.1523L90.3178 39.62C90.3094 40.2432 90.4315 40.7148 90.6841 41.0348C90.9452 41.3549 91.3536 41.5149 91.9094 41.5149L91.7452 42.9802Z" fill="black"/>
<path d="M84.0915 36.6914C84.9 37.3651 85.5274 37.9336 85.9737 38.3968C86.42 38.8599 86.7401 39.2768 86.9337 39.6473C87.1274 40.0179 87.2243 40.3884 87.2243 40.759C87.2243 41.2222 87.1022 41.6264 86.858 41.9717C86.6137 42.3169 86.2853 42.5822 85.8726 42.7675C85.4937 42.9528 85.0347 43.0454 84.4957 43.0454C83.881 43.0454 83.422 42.898 83.1188 42.6033C82.8156 42.3001 82.6641 41.9043 82.6641 41.4159C82.6641 40.6074 83.102 39.6052 83.9778 38.4094L83.3588 37.8788L84.0915 36.6914ZM83.7631 40.7842C83.7631 40.9948 83.8431 41.1716 84.0031 41.3148C84.1631 41.458 84.4031 41.5295 84.7231 41.5295C85.0937 41.5295 85.4263 41.479 85.7211 41.378C86.0242 41.2769 86.1758 41.159 86.1758 41.0243C86.1758 40.8137 86.0705 40.5695 85.86 40.2916C85.6579 40.0053 85.2663 39.5926 84.6852 39.0536C84.382 39.441 84.1505 39.7863 83.9904 40.0895C83.8389 40.3842 83.7631 40.6158 83.7631 40.7842Z" fill="black"/>
<path d="M79.7693 43.5599L79.5293 33.7573L80.8304 33.6562L80.7925 43.4715L79.7693 43.5599Z" fill="black"/>
<path d="M77.3542 38.6055C77.43 39.0097 77.5058 39.4813 77.5816 40.0203C77.6658 40.5592 77.7079 40.9593 77.7079 41.2203C77.7079 41.5993 77.6111 41.9741 77.4174 42.3446C77.2237 42.7067 76.9626 42.9678 76.6342 43.1278C76.1626 43.3636 75.4131 43.4815 74.3857 43.4815C74.352 43.4815 74.3183 43.431 74.2846 43.3299C74.2509 43.2289 74.2341 43.0899 74.2341 42.9131C74.2341 42.6267 74.2678 42.4078 74.3351 42.2562C74.3941 42.0962 74.4615 42.0162 74.5373 42.0162C75.8931 42.0162 76.571 41.8688 76.571 41.574C76.571 41.3467 76.5289 40.9677 76.4447 40.4371C76.3605 39.8982 76.251 39.4055 76.1163 38.9592L77.3542 38.6055ZM75.2447 44.8837H75.371H77.0258V46.0711H75.371H75.2447H73.5898V44.8837H75.2447Z" fill="black"/>
<path d="M74.3788 43.4825C73.2924 43.4825 72.6145 43.1288 72.345 42.4214C72.1597 42.7666 71.8439 43.0319 71.3976 43.2172C70.9513 43.394 70.3786 43.4825 69.6796 43.4825H69.427C69.3933 43.4825 69.3596 43.4319 69.3259 43.3309C69.2922 43.2298 69.2754 43.0909 69.2754 42.914C69.2754 42.6277 69.3091 42.4087 69.3764 42.2571C69.4354 42.0971 69.5028 42.0171 69.5786 42.0171H69.8312C70.5807 42.0171 71.1239 41.8992 71.4608 41.6634C71.806 41.4276 71.9787 41.0655 71.9787 40.5771V39.5538L73.0524 39.4654V40.5644C73.0524 41.0444 73.1661 41.4066 73.3935 41.6508C73.6293 41.895 74.0125 42.0171 74.543 42.0171L74.3788 43.4825ZM71.0818 38.0759V36.6484H72.6229V38.0759H71.0818Z" fill="black"/>
<path d="M69.4198 43.4846C68.3334 43.4846 67.6555 43.1309 67.386 42.4235C67.2008 42.7688 66.885 43.0341 66.4386 43.2194C65.9923 43.3962 65.4196 43.4846 64.7206 43.4846H64.468C64.4343 43.4846 64.4006 43.4341 64.3669 43.333C64.3332 43.232 64.3164 43.093 64.3164 42.9162C64.3164 42.6299 64.3501 42.4109 64.4175 42.2593C64.4764 42.0993 64.5438 42.0193 64.6196 42.0193H64.8722C65.6217 42.0193 66.1649 41.9014 66.5018 41.6656C66.8471 41.4298 67.0197 41.0677 67.0197 40.5792V39.556L68.0934 39.4676V40.5666C68.0934 41.0466 68.2071 41.4087 68.4345 41.653C68.6703 41.8972 69.0535 42.0193 69.584 42.0193L69.4198 43.4846ZM66.7039 36.8906H66.8302H68.485V38.0781H66.8302H66.7039H65.0491V36.8906H66.7039Z" fill="black"/>
<path d="M64.4673 43.4825C63.8441 43.4825 63.4062 43.3689 63.1536 43.1415C63.0525 43.7057 62.8335 44.2152 62.4967 44.67C62.1598 45.1247 61.6966 45.5079 61.1071 45.8195C60.206 46.2911 59.0186 46.6574 57.5449 46.9185L57.3048 46.1479L57.1406 45.63C59.0523 45.2847 60.3534 44.8805 61.044 44.4173C61.743 43.9541 62.0925 43.4531 62.0925 42.9141C62.0925 42.6362 62.0419 42.1941 61.9409 41.5877C61.8398 40.9729 61.7135 40.3792 61.5619 39.8066L62.7872 39.4023C62.9135 40.1855 63.0357 40.754 63.1536 41.1077C63.2799 41.453 63.4483 41.693 63.6588 41.8277C63.8694 41.954 64.1894 42.0172 64.6189 42.0172L64.4673 43.4825Z" fill="black"/>
<path d="M58.8858 38.6052C58.9616 39.0095 59.0374 39.4811 59.1132 40.02C59.1974 40.559 59.2395 40.959 59.2395 41.2201C59.2395 41.5991 59.1426 41.9738 58.9489 42.3444C58.7552 42.7065 58.4942 42.9675 58.1657 43.1276C57.6941 43.3634 56.9446 43.4813 55.9172 43.4813C55.8835 43.4813 55.8498 43.4307 55.8162 43.3297C55.7825 43.2286 55.7656 43.0897 55.7656 42.9128C55.7656 42.6265 55.7993 42.4075 55.8667 42.2559C55.9256 42.0959 55.993 42.0159 56.0688 42.0159C57.4247 42.0159 58.1026 41.8685 58.1026 41.5738C58.1026 41.3464 58.0605 40.9674 57.9763 40.4369C57.892 39.8979 57.7826 39.4053 57.6478 38.9589L58.8858 38.6052ZM57.231 37.4431V36.0156H58.7721V37.4431H57.231Z" fill="black"/>
<path d="M55.912 43.4846C54.8256 43.4846 54.1477 43.1309 53.8782 42.4235C53.6929 42.7688 53.3771 43.0341 52.9308 43.2194C52.4845 43.3962 51.9118 43.4846 51.2128 43.4846H50.9602C50.9265 43.4846 50.8928 43.4341 50.8591 43.333C50.8254 43.232 50.8086 43.093 50.8086 42.9162C50.8086 42.6299 50.8423 42.4109 50.9097 42.2593C50.9686 42.0993 51.036 42.0193 51.1118 42.0193H51.3644C52.1139 42.0193 52.6571 41.9014 52.994 41.6656C53.3392 41.4298 53.5119 41.0677 53.5119 40.5792V39.556L54.5856 39.4676V40.5666C54.5856 41.0466 54.6993 41.4087 54.9267 41.653C55.1625 41.8972 55.5457 42.0193 56.0762 42.0193L55.912 43.4846ZM53.1961 36.8906H53.3224H54.9772V38.0781H53.3224H53.1961H51.5413V36.8906H53.1961Z" fill="black"/>
<path d="M50.3225 43.4836C50.3983 43.61 50.4362 43.7531 50.4362 43.9131C50.4362 44.25 50.3562 44.5784 50.1962 44.8984C50.0446 45.2185 49.8046 45.509 49.4762 45.7701C48.9625 46.1743 48.2593 46.5027 47.3666 46.7554C46.4823 47.0164 45.6065 47.147 44.7391 47.147C43.5517 47.147 42.6632 46.9027 42.0737 46.4143C41.4842 45.9343 41.1895 45.2395 41.1895 44.33C41.1895 43.4542 41.4084 42.2751 41.8463 40.793L42.8443 41.0709C42.5243 42.2499 42.3642 43.1552 42.3642 43.7868C42.3642 44.3763 42.5874 44.8395 43.0338 45.1763C43.4801 45.5132 44.1328 45.6816 44.9917 45.6816C45.716 45.6816 46.4108 45.5974 47.0761 45.429C47.7414 45.269 48.2803 45.0753 48.693 44.8479C49.1056 44.6205 49.312 44.4268 49.312 44.2668C49.312 44.1321 49.2235 44.0142 49.0467 43.9131C48.8783 43.8205 48.5751 43.7236 48.1372 43.6226C47.7077 43.5215 47.0761 43.3994 46.2423 43.2562L46.5329 41.9551C47.4003 41.9972 48.554 42.0183 49.9941 42.0183H51.1057L50.9415 43.4836H50.3225Z" fill="black"/>
<g clip-path="url(#clip0_9356_12661)">
<rect x="139" y="1" width="50" height="50" rx="25" fill="black"/>
<path d="M162.113 18.8047C166.461 22.0312 169.554 25.0937 171.393 27.9922C173.288 30.8359 174.236 33.9258 174.236 37.2617C174.236 41.0898 173.288 44.7539 171.393 48.2539C169.498 51.7539 166.683 54.3789 162.949 56.1289C160.775 57.1133 158.546 57.7695 156.261 58.0976C154.031 58.4258 151.523 58.5898 148.736 58.5898C148.458 58.5898 148.179 57.9609 147.9 56.7031C147.622 55.3906 147.482 53.5586 147.482 51.207C147.482 47.4883 147.817 44.918 148.486 43.4961C149.099 42.0742 149.74 41.3633 150.409 41.3633C153.864 41.3633 156.595 41.0898 158.602 40.543C160.664 39.9961 161.695 39.3125 161.695 38.4922C161.695 37.4531 160.636 35.8125 158.518 33.5703C156.4 31.3281 152.722 28.457 147.482 24.957L150.409 10.1914L190.956 -7.03516L193.465 6.08984L162.113 18.8047Z" fill="#242424"/>
<path d="M163.209 22.3125C165.362 23.9148 166.893 25.4356 167.804 26.875C168.742 28.2872 169.212 29.8216 169.212 31.4782C169.212 33.3793 168.742 35.1988 167.804 36.9369C166.866 38.675 165.472 39.9786 163.623 40.8477C162.547 41.3365 161.443 41.6624 160.311 41.8253C159.208 41.9883 157.966 42.0698 156.586 42.0698C156.448 42.0698 156.31 41.7574 156.172 41.1328C156.034 40.481 155.965 39.5712 155.965 38.4035C155.965 36.5567 156.13 35.2803 156.462 34.5742C156.765 33.8681 157.083 33.5151 157.414 33.5151C159.125 33.5151 160.477 33.3793 161.471 33.1077C162.492 32.8361 163.002 32.4967 163.002 32.0893C163.002 31.5733 162.478 30.7586 161.429 29.6451C160.38 28.5316 158.559 27.1058 155.965 25.3677L157.414 18.0352L177.491 9.48047L178.733 15.9983L163.209 22.3125Z" fill="#A72F3B"/>
</g>
<defs>
<clipPath id="clip0_9356_12661">
<rect x="139" y="1" width="50" height="50" rx="25" fill="white"/>
</clipPath>
</defs>
</svg>
