<svg width="40" height="40" viewBox="0 0 40 40" fill="none" xmlns="http://www.w3.org/2000/svg">
    <g clip-path="url(#clip0_9342_26147)">
        <rect width="40" height="40" rx="20" fill="black" />
        <path
            d="M18.4907 14.2433C21.9686 16.8246 24.4433 19.2745 25.9147 21.5933C27.4307 23.8683 28.1887 26.3402 28.1887 29.0089C28.1887 32.0714 27.4307 35.0027 25.9147 37.8027C24.3987 40.6027 22.1469 42.7027 19.1595 44.1027C17.4205 44.8902 15.637 45.4152 13.8089 45.6777C12.0253 45.9402 10.0188 46.0714 7.78938 46.0714C7.56643 46.0714 7.3435 45.5683 7.12056 44.562C6.89761 43.512 6.78613 42.0464 6.78613 40.1652C6.78613 37.1902 7.05368 35.1339 7.58874 33.9964C8.07922 32.8589 8.59198 32.2902 9.12704 32.2902C11.8915 32.2902 14.0764 32.0714 15.6816 31.6339C17.3314 31.1964 18.1563 30.6495 18.1563 29.9933C18.1563 29.162 17.3091 27.8495 15.6147 26.0558C13.9203 24.262 10.9775 21.9652 6.78613 19.1652L9.12704 7.35267L41.5653 -6.42857L43.5718 4.07142L18.4907 14.2433Z"
            fill="#242424" />
        <path
            d="M19.3667 17.0513C21.0888 18.3332 22.3141 19.5499 23.0427 20.7013C23.7934 21.8311 24.1687 23.0586 24.1687 24.3839C24.1687 25.9048 23.7934 27.3604 23.0427 28.7509C22.2921 30.1414 21.1771 31.1842 19.6979 31.8795C18.8369 32.2705 17.9538 32.5313 17.0486 32.6616C16.1654 32.792 15.1719 32.8572 14.068 32.8572C13.9577 32.8572 13.8473 32.6073 13.7369 32.1076C13.6265 31.5862 13.5713 30.8583 13.5713 29.9241C13.5713 28.4467 13.7038 27.4256 13.9687 26.8607C14.2116 26.2958 14.4654 26.0134 14.7304 26.0134C16.0992 26.0134 17.181 25.9048 17.9758 25.6875C18.7927 25.4702 19.2012 25.1987 19.2012 24.8728C19.2012 24.46 18.7817 23.8082 17.9427 22.9174C17.1038 22.0266 15.6466 20.886 13.5713 19.4955L14.7304 13.6295L30.7921 6.78572L31.7856 12L19.3667 17.0513Z"
            fill="#A72F3B" />
    </g>
    <defs>
        <clipPath id="clip0_9342_26147">
            <rect width="40" height="40" rx="20" fill="white" />
        </clipPath>
    </defs>
</svg>