<svg width="16" height="16" viewBox="0 0 16 16" fill="none" xmlns="http://www.w3.org/2000/svg">
    <path
        d="M7.66634 14.5C3.89967 14.5 0.833008 11.4333 0.833008 7.66666C0.833008 3.89999 3.89967 0.833328 7.66634 0.833328C11.433 0.833328 14.4997 3.89999 14.4997 7.66666C14.4997 11.4333 11.433 14.5 7.66634 14.5ZM7.66634 1.83333C4.44634 1.83333 1.83301 4.45333 1.83301 7.66666C1.83301 10.88 4.44634 13.5 7.66634 13.5C10.8863 13.5 13.4997 10.88 13.4997 7.66666C13.4997 4.45333 10.8863 1.83333 7.66634 1.83333Z"
        fill="#A72F3B" />
    <path
        d="M14.6666 15.1669C14.54 15.1669 14.4133 15.1203 14.3133 15.0203L12.98 13.6869C12.7866 13.4936 12.7866 13.1736 12.98 12.9803C13.1733 12.7869 13.4933 12.7869 13.6866 12.9803L15.02 14.3136C15.2133 14.5069 15.2133 14.8269 15.02 15.0203C14.92 15.1203 14.7933 15.1669 14.6666 15.1669Z"
        fill="#A72F3B" />
</svg>